<?xml version="1.0" standalone="no"?> <!DOCTYPE svg PUBLIC "-//W3C//DTD SVG 1.0//EN" "http://www.w3.org/TR/2001/REC-SVG-20010904/DTD/svg10.dtd" > <svg xmlns="http://www.w3.org/2000/svg" width="100%" height="100%">
<defs >
<font id="bemio" horiz-adv-x="540" ><font-face
    font-family="Bemio"
    units-per-em="1000"
    panose-1="2 0 0 0 0 0 0 0 0 0"
    ascent="750"
    descent="-250"
    alphabetic="0" />
<missing-glyph horiz-adv-x="427" d="M0 676H427V0H0V676ZM84 204L164 338L84 471V204ZM213 419L318 592H109L213 419ZM318 84L213 257L109 84H318ZM263 338L343 204V471L263 338Z" />
<glyph unicode=" " glyph-name="space" horiz-adv-x="240" />
<glyph unicode="!" glyph-name="exclam" horiz-adv-x="345" d="M47 566V676H298V566L257 252H88L47 566ZM55 0V200H290V0H55Z" />
<glyph unicode="&quot;" glyph-name="quotedbl" horiz-adv-x="514" d="M46 608V676H218V608L208 366H56L46 608ZM296 608V676H468V608L458 366H306L296 608Z" />
<glyph unicode="#" glyph-name="numbersign" horiz-adv-x="663" d="M413 584H550L534 463H635V341H518L505 243H599V121H489L473 0H336L352 121H266L250 0H113L129 121H28V243H145L158 341H64V463H174L190 584H327L311 463H397L413 584ZM295 341L282 243H368L381
341H295Z" />
<glyph unicode="$" glyph-name="dollar" horiz-adv-x="632" d="M277 485Q277 467 301 455T362 435T441 412T520 378T580 318T605 223Q605 118 545 61T374 -9V-161H274V-12Q141 -8 32 37L72 218Q191 164 294 164Q356 164 356 195Q356 215 323 227T242 250T147 280T66
343T33 456Q34 557 98 616T274 687V781H374V687Q473 682 577 651L538 477Q446 515 339 515Q277 515 277 485Z" />
<glyph unicode="%" glyph-name="percent" horiz-adv-x="840" d="M151 -10L589 686H689L250 -10H151ZM272 327T192 327T69 376T26 508T69 639T192 689T315 640T358 508T315 377ZM214 593T192 593T158 570T146 508T158 446T192 423T226 446T238 508T226 570ZM728
-13T648 -13T525 36T482 168T525 299T648 349T771 300T814 168T771 37ZM670 253T648 253T614 230T602 168T614 106T648 83T682 106T694 168T682 230Z" />
<glyph unicode="&amp;" glyph-name="ampersand" horiz-adv-x="709" d="M693 427V257H638V249Q638 -13 334 -13Q254 -13 189 4T77 66T30 178Q30 241 66 286T160 347Q51 396 51 501Q51 592 129 640T343 689Q459 689 578 650L548 471Q469 502 375 502Q290 502 290
463Q290 427 368 427H386V257H356Q282 257 282 217Q282 174 352 174Q395 174 415 193T436 241V427H693Z" />
<glyph unicode="&apos;" glyph-name="quotesingle" horiz-adv-x="264" d="M46 608V676H218V608L208 366H56L46 608Z" />
<glyph unicode="(" glyph-name="parenleft" horiz-adv-x="368" d="M371 -196H167Q93 -78 59 30T25 260T59 489T167 716H371Q219 516 219 260T371 -196Z" />
<glyph unicode=")" glyph-name="parenright" horiz-adv-x="368" d="M201 -196H-3Q149 4 149 260T-3 716H201Q275 598 309 490T343 260T309 31T201 -196Z" />
<glyph unicode="*" glyph-name="asterisk" horiz-adv-x="501" d="M472 471L436 459L331 437L403 359L426 327L326 255L304 286L251 379L198 286L176 255L76 327L99 358L171 437L66 458L29 470L67 587L104 575L201 531L189 637V676H312V637L300 532L397 576L434
588L472 471Z" />
<glyph unicode="+" glyph-name="plus" horiz-adv-x="573" d="M544 332V177H366V0H207V177H29V332H207V509H366V332H544Z" />
<glyph unicode="," glyph-name="comma" horiz-adv-x="330" d="M48 200H283V18L170 -149H53L145 0H48V200Z" />
<glyph unicode="-" glyph-name="hyphen" horiz-adv-x="426" d="M378 338V183H48V338H378Z" />
<glyph unicode="." glyph-name="period" horiz-adv-x="331" d="M48 0V200H283V0H48Z" />
<glyph unicode="/" glyph-name="slash" horiz-adv-x="539" d="M24 -28L350 691H516L190 -28H24Z" />
<glyph unicode="0" glyph-name="zero" horiz-adv-x="688" d="M189 689T344 689T577 594T656 338T578 82T344 -13T111 82T32 338T110 594ZM313 173T344 173T386 214T397 338T386 462T344 503T302 462T291 338T302 214Z" />
<glyph unicode="1" glyph-name="one" horiz-adv-x="488" d="M176 0V384H13V531Q211 531 219 676H430V0H176Z" />
<glyph unicode="2" glyph-name="two" horiz-adv-x="655" d="M320 689Q384 689 433 679T523 646T587 579T609 472Q609 393 560 333T409 201H616V0H37V193Q74 216 130 249T219 303T285 347T335 394T351 438Q351 467 329 477T256 488Q181 488 73 444L37 634Q90 654
172 671T320 689Z" />
<glyph unicode="3" glyph-name="three" horiz-adv-x="638" d="M469 347Q527 333 570 287T613 182Q613 129 587 90T513 30T410 -2T287 -13Q138 -13 21 26L47 221Q145 180 243 180Q350 180 350 216Q350 255 275 255H141V429H255Q329 429 329 462Q329 497 247 497Q157
497 76 465L46 649Q166 689 288 689Q424 689 501 641T579 494Q579 443 548 406T469 347Z" />
<glyph unicode="4" glyph-name="four" horiz-adv-x="687" d="M650 306V121H584V0H349V121H18V310L285 676H584V306H650ZM226 301H354V475L226 301Z" />
<glyph unicode="5" glyph-name="five" horiz-adv-x="627" d="M43 342L93 676H573V487H313L304 431Q334 433 350 433Q455 433 527 378T599 209Q599 149 573 105T500 35T398 -1T276 -13Q155 -13 25 25L52 213Q144 173 222 173Q324 173 324 224Q324 279 229 279Q194
279 143 270L43 342Z" />
<glyph unicode="6" glyph-name="six" horiz-adv-x="666" d="M426 447Q534 447 588 386T642 223Q642 117 562 52T336 -13Q186 -13 109 79T31 338Q31 498 126 593T364 689Q499 689 604 638L568 479Q500 508 412 508Q293 508 281 405Q349 447 426 447ZM344 158Q368
158 379 177T391 224Q391 291 344 291Q321 291 309 272T297 224Q297 158 344 158Z" />
<glyph unicode="7" glyph-name="seven" horiz-adv-x="593" d="M17 676H582V495Q493 384 443 265T386 0H123Q128 200 302 468H17V676Z" />
<glyph unicode="8" glyph-name="eight" horiz-adv-x="666" d="M500 345Q636 303 636 177Q636 131 621 98T580 43T514 9T431 -8T333 -13T235 -9T152 9T87 43T46 97T30 177Q30 303 166 345Q54 383 54 508Q54 599 126 644T333 689T539 644T612 508Q612 383 500 345ZM373
554T333 554T293 489Q293 460 304 443T333 425T362 442T373 489Q373 554 333 554ZM284 127T333 127T382 200Q382 279 333 279T284 200Q284 127 333 127Z" />
<glyph unicode="9" glyph-name="nine" horiz-adv-x="673" d="M256 229Q145 229 87 292T29 457Q29 561 111 625T333 689Q490 689 566 595T642 347Q642 180 555 84T305 -13Q158 -13 53 38L89 210Q173 173 264 173Q330 173 359 195T395 260Q335 229 256 229ZM330
517Q305 517 293 498T281 449T293 401T330 382Q379 382 379 449Q379 477 367 497T330 517Z" />
<glyph unicode=":" glyph-name="colon" horiz-adv-x="349" d="M57 0V200H292V0H57ZM57 330V530H292V330H57Z" />
<glyph unicode=";" glyph-name="semicolon" horiz-adv-x="348" d="M57 330V530H292V330H57ZM57 200H292V18L179 -149H62L154 0H57V200Z" />
<glyph unicode="&lt;" glyph-name="less" horiz-adv-x="556" d="M28 337L508 524V355L219 255L508 155V-14L28 173V337Z" />
<glyph unicode="=" glyph-name="equal" horiz-adv-x="615" d="M565 212V57H50V212H565ZM565 453V298H50V453H565Z" />
<glyph unicode="&gt;" glyph-name="greater" horiz-adv-x="556" d="M48 524L528 337V173L48 -14V155L337 255L48 355V524Z" />
<glyph unicode="?" glyph-name="question" horiz-adv-x="519" d="M252 483Q252 517 195 517Q131 517 56 489L24 648Q130 689 248 689Q358 689 424 652T490 530Q490 488 469 449T424 386T378 332T357 273V252H157V286Q157 313 172 340T204 386T237 431T252 483ZM142
0V200H377V0H142Z" />
<glyph unicode="@" glyph-name="at" horiz-adv-x="772" d="M376 -87Q230 -87 133 10T36 246Q36 403 151 514T417 625Q562 625 653 536T745 310Q745 196 687 135T553 73Q475 73 456 146Q406 73 324 73Q251 73 210 120T168 238Q168 331 229 398T375 466Q457 466
495 403L504 451H617L574 223Q562 154 607 154Q645 154 670 193T696 310Q696 431 619 505T415 579Q282 579 183 481T83 248Q83 124 169 41T378 -42Q470 -42 551 9L576 -28Q481 -87 376 -87ZM364 167Q405 167 436 201T468 293Q468 326 450 348T398 370Q352 370 322
334T292 246Q292 211 311 189T364 167Z" />
<glyph unicode="A" glyph-name="A" horiz-adv-x="758" d="M534 676L771 0H510L479 113H279L249 0H-13L223 676H534ZM379 479L322 271H436L379 479Z" />
<glyph unicode="B" glyph-name="B" horiz-adv-x="716" d="M696 189Q696 129 665 88T575 25T450 -4T296 -13Q170 -13 58 1V672Q189 689 293 689Q365 689 425 680T542 650T630 587T662 486Q662 388 571 343Q614 334 655 294T696 189ZM306 522V411Q315 410 343 410Q430
410 430 469Q430 524 346 524Q326 524 306 522ZM351 158Q390 158 420 172T451 219Q451 281 348 281Q326 281 306 279V159Q313 158 351 158Z" />
<glyph unicode="C" glyph-name="C" horiz-adv-x="665" d="M465 186Q536 186 595 211L645 29Q519 -13 400 -13Q232 -13 130 82T28 338Q28 500 130 594T400 689Q519 689 645 647L595 465Q536 490 465 490Q383 490 338 450T293 338T338 226T465 186Z" />
<glyph unicode="D" glyph-name="D" horiz-adv-x="782" d="M318 689Q516 689 635 596T755 334Q755 248 724 184T645 83T532 24T408 -6T286 -13Q189 -13 58 1V672Q172 689 318 689ZM318 179Q326 178 348 178Q421 178 456 223T492 346Q492 421 455 462T350 504Q326
504 318 503V179Z" />
<glyph unicode="E" glyph-name="E" horiz-adv-x="658" d="M616 486H312V427H578V251H312V189H616V0H58V676H616V486Z" />
<glyph unicode="F" glyph-name="F" horiz-adv-x="612" d="M588 484H316V401H554V202H316V0H58V676H588V484Z" />
<glyph unicode="G" glyph-name="G" horiz-adv-x="730" d="M465 375H692V38Q575 -13 411 -13Q242 -13 135 80T27 336Q27 497 137 593T423 689Q542 689 663 657L630 471Q548 495 474 495Q292 495 292 336Q292 261 336 221T441 181Q451 181 465 183V375Z" />
<glyph unicode="H" glyph-name="H" horiz-adv-x="802" d="M485 676H744V0H485V251H317V0H58V676H317V433H485V676Z" />
<glyph unicode="I" glyph-name="I" horiz-adv-x="377" d="M319 676V0H58V676H319Z" />
<glyph unicode="J" glyph-name="J" horiz-adv-x="530" d="M99 676H479V280Q479 -13 187 -13Q85 -13 8 24L53 201Q90 190 122 190Q171 190 195 205T220 266V481H99V676Z" />
<glyph unicode="K" glyph-name="K" horiz-adv-x="750" d="M537 372L762 0H464L319 275V0H58V676H319V436L464 676H744L537 372Z" />
<glyph unicode="L" glyph-name="L" horiz-adv-x="585" d="M319 676V190H575V0H58V676H319Z" />
<glyph unicode="M" glyph-name="M" horiz-adv-x="879" d="M559 676H821V0H578V345L442 129H436L301 345V0H58V676H320L439 455L559 676Z" />
<glyph unicode="N" glyph-name="N" horiz-adv-x="814" d="M517 676H756V0H509L297 347V0H58V676H318L517 331V676Z" />
<glyph unicode="O" glyph-name="O" horiz-adv-x="819" d="M410 689Q582 689 687 595T792 338T687 82T410 -13Q237 -13 132 81T27 338T132 594T410 689ZM351 181T410 181T499 221T529 338T499 454T410 495T321 455T290 338T320 222Z" />
<glyph unicode="P" glyph-name="P" horiz-adv-x="711" d="M301 689Q373 689 438 677T564 636T660 554T696 426Q696 355 662 302T571 220T449 180T314 174V0H58V673Q161 689 301 689ZM312 498V355Q339 353 364 356T415 377T441 428Q441 459 416 476T363 497T312 498Z" />
<glyph unicode="Q" glyph-name="Q" horiz-adv-x="820" d="M720 19L797 -97Q746 -144 677 -165T544 -181T429 -131T363 -12Q211 1 120 94T28 337Q28 500 133 594T411 689Q583 689 688 595T793 337Q793 222 738 139T586 18Q627 -33 720 19ZM291 414T291 338T321
220T411 178Q469 178 499 220T530 338T500 454T411 495T322 455Z" />
<glyph unicode="R" glyph-name="R" horiz-adv-x="742" d="M579 278Q684 258 719 0H460Q451 45 443 78T427 134T408 172T389 195T366 206T341 210T309 211V0H58V669Q174 689 318 689Q703 689 703 454Q703 334 579 278ZM331 369Q358 369 382 373T428 394T450 439Q450
476 416 491T338 507Q324 507 308 505V370Q315 369 331 369Z" />
<glyph unicode="S" glyph-name="S" horiz-adv-x="635" d="M286 483Q286 470 319 461T400 440T494 407T575 340T609 227Q609 106 531 47T315 -13Q163 -13 34 38L75 221Q189 166 298 166Q354 166 354 191Q354 204 321 212T241 233T148 266T68 336T36 456Q37 567
114 628T324 689Q450 689 583 650L542 468Q454 508 342 508Q286 508 286 483Z" />
<glyph unicode="T" glyph-name="T" horiz-adv-x="665" d="M463 483V0H202V483H10V676H655V483H463Z" />
<glyph unicode="U" glyph-name="U" horiz-adv-x="755" d="M443 676H704V267Q704 126 619 57T377 -13T136 56T51 267V676H312V270Q312 229 325 208T377 186Q416 186 429 207T443 270V676Z" />
<glyph unicode="V" glyph-name="V" horiz-adv-x="749" d="M196 0L-6 676H260L374 227L489 676H756L552 0H196Z" />
<glyph unicode="W" glyph-name="W" horiz-adv-x="1103" d="M841 676H1100L949 0H631L551 380L470 0H154L3 676H261L329 216L431 676H669L772 216L841 676Z" />
<glyph unicode="X" glyph-name="X" horiz-adv-x="745" d="M6 676H276L372 486L467 676H739L550 350L749 0H479L372 206L265 0H-5L193 350L6 676Z" />
<glyph unicode="Y" glyph-name="Y" horiz-adv-x="715" d="M469 676H732L488 241V0H227V241L-18 676H246L356 432L469 676Z" />
<glyph unicode="Z" glyph-name="Z" horiz-adv-x="660" d="M48 676H614V490L360 191H620V0H33V155L318 485H48V676Z" />
<glyph unicode="[" glyph-name="bracketleft" horiz-adv-x="383" d="M363 -195H52V716H363V588H223V-65H363V-195Z" />
<glyph unicode="\" glyph-name="backslash" horiz-adv-x="539" d="M189 691L515 -28H349L23 691H189Z" />
<glyph unicode="]" glyph-name="bracketright" horiz-adv-x="383" d="M331 -195H20V-65H160V588H20V716H331V-195Z" />
<glyph unicode="^" glyph-name="asciicircum" horiz-adv-x="577" d="M287 530L208 326H35L192 676H382L539 326H366L287 530Z" />
<glyph unicode="_" glyph-name="underscore" horiz-adv-x="733" d="M120 -124V-37H613V-124H120Z" />
<glyph unicode="`" glyph-name="grave" horiz-adv-x="395" d="M207 590L43 745H242L352 590H207Z" />
<glyph unicode="a" glyph-name="a" horiz-adv-x="649" d="M312 543Q606 543 606 313V0H354V49Q287 -13 199 -13Q121 -13 70 36T19 157Q19 241 78 284T247 328Q305 328 351 318V323Q351 372 258 372Q168 372 92 343L57 501Q165 543 312 543ZM357 197V215Q342 218
320 218Q291 218 275 205T258 169Q258 151 269 140T302 128Q357 128 357 197Z" />
<glyph unicode="b" glyph-name="b" horiz-adv-x="704" d="M456 543Q554 543 616 463T679 266T617 68T456 -13Q359 -13 295 68V0H50V739H305V476Q367 543 456 543ZM326 177T358 177T411 203T432 266T411 329T358 355T305 329T284 266T305 203Z" />
<glyph unicode="c" glyph-name="c" horiz-adv-x="539" d="M382 171Q436 171 484 193L517 22Q416 -13 321 -13Q185 -13 105 63T24 265Q24 389 104 466T321 543Q413 543 517 507L484 343Q434 364 382 364Q324 364 299 336T274 268Q274 229 299 200T382 171Z" />
<glyph unicode="d" glyph-name="d" horiz-adv-x="704" d="M257 543Q340 543 399 478V739H654V0H409V68Q345 -13 248 -13Q150 -13 88 68T25 266T90 463T257 543ZM314 177T346 177T399 203T420 266T399 329T346 355T293 329T272 266T293 203Z" />
<glyph unicode="e" glyph-name="e" horiz-adv-x="612" d="M587 206H254Q282 149 399 149Q463 149 538 174L564 24Q470 -13 338 -13Q201 -13 112 60T23 271Q23 392 106 467T310 543Q470 543 539 450T587 206ZM247 325H379Q370 395 316 395T247 325ZM247 325H379H247Z" />
<glyph unicode="f" glyph-name="f" horiz-adv-x="442" d="M297 752Q382 752 444 727L427 587Q413 589 403 589Q384 589 373 587T351 571T341 534V530H425V355H341V0H86V355H30V530H86V532Q86 595 104 640T153 708T220 742T297 752Z" />
<glyph unicode="g" glyph-name="g" horiz-adv-x="702" d="M408 530H653V84Q653 -70 580 -138T341 -207Q73 -207 73 -65Q73 -18 104 18T194 72Q117 89 70 153T23 304Q23 405 86 474T247 543Q344 543 408 474V530ZM370 366T340 366T291 342T272 283T291 224T340
199T389 223T409 283T390 342ZM404 -2V68L380 64Q355 60 331 40T306 -11Q306 -62 353 -62Q404 -62 404 -2Z" />
<glyph unicode="h" glyph-name="h" horiz-adv-x="699" d="M654 360V0H399V303Q399 323 385 337T352 352T319 338T305 303V0H50V739H305V481Q365 543 463 543Q544 543 599 491T654 360Z" />
<glyph unicode="i" glyph-name="i" horiz-adv-x="355" d="M50 0V530H305V0H50ZM308 739V581H47V739H308Z" />
<glyph unicode="j" glyph-name="j" horiz-adv-x="356" d="M51 530H306V53Q306 -12 286 -60T236 -134T159 -177T74 -199T-16 -207L-34 -46Q-17 -40 -6 -35T21 -19T43 6T51 42V530ZM309 739V581H48V739H309Z" />
<glyph unicode="k" glyph-name="k" horiz-adv-x="684" d="M691 0H420L305 216V0H50V739H305V359L413 530H670L507 314L691 0Z" />
<glyph unicode="l" glyph-name="l" horiz-adv-x="355" d="M50 0V739H305V0H50Z" />
<glyph unicode="m" glyph-name="m" horiz-adv-x="1038" d="M805 543Q885 543 939 491T993 360V0H738V303Q738 324 726 338T694 352T662 338T649 303V0H394V303Q394 324 382 338T350 352T318 338T305 303V0H50V530H294V476Q356 543 461 543Q562 543 616 466Q685
543 805 543Z" />
<glyph unicode="n" glyph-name="n" horiz-adv-x="699" d="M654 360V0H399V303Q399 323 385 337T352 352T319 338T305 303V0H50V530H297V478Q362 543 463 543Q544 543 599 491T654 360Z" />
<glyph unicode="o" glyph-name="o" horiz-adv-x="684" d="M343 543Q477 543 569 468T662 265T570 62T343 -13Q207 -13 115 62T22 265T114 468T343 543ZM309 172T342 172T396 199T417 265T396 331T342 358T288 331T267 265T288 199Z" />
<glyph unicode="p" glyph-name="p" horiz-adv-x="704" d="M447 -13Q364 -13 305 52V-194H50V530H295V462Q359 543 456 543Q554 543 616 462T679 264T614 67T447 -13ZM390 355T358 355T305 329T284 266T305 203T358 177T411 203T432 266T411 329Z" />
<glyph unicode="q" glyph-name="q" horiz-adv-x="704" d="M248 -13Q150 -13 88 67T25 264T87 462T248 543Q345 543 409 462V530H654V-194H399V54Q337 -13 248 -13ZM378 355T346 355T293 329T272 266T293 203T346 177T399 203T420 266T399 329Z" />
<glyph unicode="r" glyph-name="r" horiz-adv-x="477" d="M462 340Q387 350 346 313T305 198V0H50V530H288V436Q294 448 297 454T307 474T321 494T338 513T361 529T388 539T422 544T462 538V340Z" />
<glyph unicode="s" glyph-name="s" horiz-adv-x="547" d="M287 369Q287 361 304 355T348 345T404 330T460 303T503 252T521 172Q521 80 453 34T264 -13Q137 -13 23 48L46 200Q127 146 226 146Q268 146 268 166Q268 174 245 179T188 193T121 216T64 267T40 357Q40
449 110 496T301 543Q404 543 505 500L483 355Q411 387 340 387Q287 387 287 369Z" />
<glyph unicode="t" glyph-name="t" horiz-adv-x="469" d="M27 355V530H82V653H337V530H429V355H337V214Q337 185 355 171T399 157Q410 157 426 159L446 18Q375 -13 275 -13Q82 -13 82 152V355H27Z" />
<glyph unicode="u" glyph-name="u" horiz-adv-x="699" d="M45 170V530H300V227Q300 207 314 193T347 178T380 192T394 227V530H649V0H402V52Q337 -13 236 -13Q155 -13 100 39T45 170Z" />
<glyph unicode="v" glyph-name="v" horiz-adv-x="644" d="M396 530H651L465 0H179L-7 530H248L322 217L396 530Z" />
<glyph unicode="w" glyph-name="w" horiz-adv-x="955" d="M699 530H956L796 0H549L478 241L405 0H159L-1 530H259L310 241L385 530H566L645 241L699 530Z" />
<glyph unicode="x" glyph-name="x" horiz-adv-x="676" d="M508 277L681 0H410L338 158L266 0H-5L168 277L13 530H259L338 391L417 530H663L508 277Z" />
<glyph unicode="y" glyph-name="y" horiz-adv-x="696" d="M392 530H647V84Q647 -70 574 -138T335 -207Q67 -207 67 -65Q67 -20 96 15T181 70Q114 75 79 111T43 209V530H298V243Q298 222 311 208T345 193T378 207T392 243V530ZM392 -3V68L369 63Q346 58 323 37T300
-15Q300 -62 343 -62Q392 -62 392 -3Z" />
<glyph unicode="z" glyph-name="z" horiz-adv-x="567" d="M526 377L335 171H531V0H29V144L233 359H47V530H526V377Z" />
<glyph unicode="{" glyph-name="braceleft" horiz-adv-x="427" d="M287 528V423Q287 293 188 261Q287 229 287 99V-6Q287 -38 299 -53T341 -68H407V-194H321Q116 -194 116 -6V134Q116 167 84 184T10 204V318Q51 320 83 337T116 388V528Q116 716 321 716H407V590H341Q312
590 300 575T287 528Z" />
<glyph unicode="|" glyph-name="bar" horiz-adv-x="221" d="M52 -194V716H169V-194H52Z" />
<glyph unicode="}" glyph-name="braceright" horiz-adv-x="427" d="M140 423V528Q140 560 128 575T86 590H20V716H106Q311 716 311 528V388Q311 355 343 338T417 318V204Q375 201 343 184T311 134V-6Q311 -194 106 -194H20V-68H86Q115 -68 127 -53T140 -6V99Q140
229 239 261Q140 293 140 423Z" />
<glyph unicode="~" glyph-name="asciitilde" horiz-adv-x="671" d="M33 196Q33 230 44 266T78 336T137 391T221 413Q271 413 315 395T391 358T447 339Q500 339 522 423H641Q640 372 619 321T553 233T449 196Q411 196 376 207T320 232T273 257T221 269Q193 269
175 247T151 196H33Z" />
</font>
</defs>
</svg>
