<?xml version="1.0" standalone="no"?> <!DOCTYPE svg PUBLIC "-//W3C//DTD SVG 1.0//EN" "http://www.w3.org/TR/2001/REC-SVG-20010904/DTD/svg10.dtd" > <svg xmlns="http://www.w3.org/2000/svg" width="100%" height="100%">
<defs >
<font id="hagincapsmedium" horiz-adv-x="410" ><font-face
    font-family="Hagin Caps Medium"
    units-per-em="1000"
    panose-1="2 0 0 0 0 0 0 0 0 0"
    ascent="750"
    descent="-250"
    alphabetic="0" />
<missing-glyph horiz-adv-x="200" />
<glyph unicode=" " glyph-name="space" horiz-adv-x="200" />
<glyph unicode="!" glyph-name="exclam" horiz-adv-x="222" d="M151 144H74L60 700H159L151 144ZM61 12T61 43T86 87T136 87T161 43T136 -1T86 -1Z" />
<glyph unicode="&quot;" glyph-name="quotedbl" horiz-adv-x="287" d="M124 702L114 505H45L42 702H124ZM250 702L240 505H172L168 702H250Z" />
<glyph unicode="#" glyph-name="numbersign" horiz-adv-x="488" d="M351 251H408V183H335L293 0H212L253 183H163L121 0H40L81 183H29V251H97L139 458H81V525H155L195 700H277L237 525H327L367 700H449L409 525H461V458H394L351 251ZM178 251H269L312 458H221L178 251Z" />
<glyph unicode="$" glyph-name="dollar" horiz-adv-x="448" d="M199 772H248V711Q399 700 399 569V517H297V570Q297 629 248 642V393Q264 386 279 381T310 368T340 352T366 331T387 305T401 272T406 231V138Q406 68 362 34T248 -7V-68H199V-7Q129 -2 85 36T41
146V201H154V145Q154 74 199 61V330Q184 336 169 342T138 355T110 371T85 390T65 414T52 444T47 483V568Q47 637 89 671T199 711V772ZM248 308V61Q299 75 301 135V230Q301 279 248 308ZM199 414V642Q151 628 151 568V483Q151 440 199 414Z" />
<glyph unicode="%" glyph-name="percent" horiz-adv-x="623" d="M424 306T478 306T563 278T595 194V113Q596 58 564 29T478 0T392 29T361 113V194Q361 249 392 277ZM145 700Q198 700 229 671T262 587V506Q263 451 231 422T145 393T59 422T28 506V587Q28 642 59
671T145 700ZM145 439Q188 439 188 506V587Q188 654 145 654Q101 654 101 587V506Q101 439 145 439ZM400 700L136 0H219L484 700H400ZM435 46T478 46T521 113V194Q521 261 478 261T435 194V113Q435 46 478 46Z" />
<glyph unicode="&amp;" glyph-name="ampersand" horiz-adv-x="487" d="M407 337V64L451 33V0H250Q208 0 177 5T114 23T66 66T49 138V256Q49 349 130 375Q101 387 85 414T68 472V570Q67 637 116 672T235 708Q404 708 404 570V523H303V570Q303 608 288 626T235 644Q204
644 183 625T162 570V472Q162 438 180 419T234 399H449V337H407ZM154 256V138Q154 95 179 74T246 53H328V58Q309 61 309 93V337H235Q193 337 174 318T154 256Z" />
<glyph unicode="&apos;" glyph-name="quotesingle" horiz-adv-x="161" d="M124 703L114 505H45L42 702L124 703Z" />
<glyph unicode="(" glyph-name="parenleft" horiz-adv-x="249" d="M232 -93L174 -138Q111 -73 77 52T41 310T73 567T170 758L232 716Q164 637 138 475T138 149T232 -93Z" />
<glyph unicode=")" glyph-name="parenright" horiz-adv-x="249" d="M17 -93Q85 -14 111 149T111 474T17 716L79 758Q142 693 175 568T208 310T173 53T75 -138L17 -93Z" />
<glyph unicode="*" glyph-name="asterisk" horiz-adv-x="297" d="M114 708H182L172 612L239 655L269 589L184 561L244 492L191 450L148 528L105 450L51 492L111 561L29 593L59 655L123 612L114 708Z" />
<glyph unicode="+" glyph-name="plus" horiz-adv-x="300" d="M32 322V382H117V493H182V382H268V322H182V211H117V322H32Z" />
<glyph unicode="," glyph-name="comma" horiz-adv-x="162" d="M125 76Q119 26 111 -5T83 -74Q52 -74 27 -70Q42 29 42 76Q69 78 125 76Z" />
<glyph unicode="-" glyph-name="hyphen" horiz-adv-x="290" d="M49 316V377H241V316H49Z" />
<glyph unicode="." glyph-name="period" horiz-adv-x="168" d="M34 45Q34 78 59 91T109 92T134 45Q134 11 109 -2T59 -3T34 45Z" />
<glyph unicode="/" glyph-name="slash" horiz-adv-x="287" d="M184 706H259L103 -17H28L184 706Z" />
<glyph unicode="0" glyph-name="zero" horiz-adv-x="500" d="M61 524Q61 608 111 659T249 710Q339 710 388 664T437 524V175Q437 82 388 35T249 -12Q161 -12 111 39T61 175V524ZM165 524V175Q165 55 249 55Q298 55 315 87T333 175V524Q333 579 316 611T249 644Q165
644 165 524Z" />
<glyph unicode="1" glyph-name="one" horiz-adv-x="272" d="M90 64V639L30 658V700H191V64L235 33V0H45V33L90 64Z" />
<glyph unicode="2" glyph-name="two" horiz-adv-x="430" d="M150 68H310L342 166H387V0H40V37Q39 102 62 163T118 270T186 361T244 457T269 560Q269 598 253 622T206 647Q188 647 176 637T158 616T149 583T146 551T146 519H45Q45 613 80 663T204 714Q286 714 331
676T377 561Q377 510 354 460T298 367T232 281T175 182T150 68Z" />
<glyph unicode="3" glyph-name="three" horiz-adv-x="442" d="M172 391L273 632H132L99 538H54V700H389V665L288 411Q336 404 364 365T392 274V156Q392 -12 213 -12Q39 -12 39 156V201H140V156Q140 108 154 81T213 54Q252 54 270 83T289 156V274Q289 316 270 344T211
374H176L172 391Z" />
<glyph unicode="4" glyph-name="four" horiz-adv-x="442" d="M17 241L265 700H354V245H406V169H354V0H255V169H17V241ZM255 543L98 245H255V543Z" />
<glyph unicode="5" glyph-name="five" horiz-adv-x="438" d="M165 635L155 469Q246 509 319 457T392 301V162Q392 78 347 33T213 -12Q43 -12 43 165V201H144V162Q144 141 144 129T149 101T160 77T180 62T213 55Q260 55 274 83T288 162V301Q288 364 255 392T176
416T82 381L56 406L76 700H371V635H165Z" />
<glyph unicode="6" glyph-name="six" horiz-adv-x="481" d="M166 400Q192 430 237 440T325 441T400 393T432 296V153Q432 73 381 31T246 -12T114 29T64 150V555Q64 629 113 667T241 706Q327 705 374 673T421 559V522H320V558Q319 642 242 642Q207 643 187 620T166
555V400ZM167 294V150Q167 55 246 55Q287 55 307 82T328 153V296Q328 339 303 364T248 390T192 366T167 294Z" />
<glyph unicode="7" glyph-name="seven" horiz-adv-x="393" d="M179 -1H72L262 632H107L74 534H29V700H380V664L179 -1Z" />
<glyph unicode="8" glyph-name="eight" horiz-adv-x="492" d="M445 251V149Q445 68 390 28T245 -13Q155 -13 102 26T48 149V251Q48 285 69 319T122 368Q69 399 69 464V581Q69 644 119 677T246 711T371 678T420 581V464Q420 406 367 368Q404 353 424 322T445 251ZM320
463V581Q320 614 300 630T245 647Q212 647 191 631T170 581V463Q170 395 245 395Q280 395 300 411T320 463ZM339 149V251Q339 295 314 317T245 339Q203 339 177 316T151 251V149Q151 103 176 79T244 54Q291 54 315 80T339 149Z" />
<glyph unicode="9" glyph-name="nine" horiz-adv-x="481" d="M315 294Q289 264 244 254T156 253T81 301T49 398V541Q49 621 100 663T235 706T367 665T417 544V139Q417 65 368 27T240 -12Q154 -11 107 21T60 135V172H161V136Q162 52 239 52Q275 52 295 74T315 139V294ZM314
400V544Q314 592 293 616T235 640Q194 640 174 613T153 541V398Q153 355 178 330T233 304T289 328T314 400Z" />
<glyph unicode=":" glyph-name="colon" horiz-adv-x="224" d="M62 45Q62 78 87 91T137 92T162 45Q162 11 137 -2T87 -3T62 45ZM62 345Q62 378 87 391T137 392T162 345Q162 311 137 298T87 297T62 345Z" />
<glyph unicode=";" glyph-name="semicolon" horiz-adv-x="223" d="M62 345Q62 378 87 391T137 392T162 345Q162 311 137 298T87 297T62 345ZM155 76Q146 -4 112 -68Q80 -68 55 -64Q70 24 70 76Q98 78 155 76Z" />
<glyph unicode="&lt;" glyph-name="less" horiz-adv-x="285" d="M31 368L225 555V457L95 332L225 209V109L31 295V368Z" />
<glyph unicode="=" glyph-name="equal" horiz-adv-x="320" d="M64 321V382H256V321H64ZM64 199V260H256V199H64Z" />
<glyph unicode="&gt;" glyph-name="greater" horiz-adv-x="285" d="M254 368V295L60 109V209L190 332L60 457V555L254 368Z" />
<glyph unicode="?" glyph-name="question" horiz-adv-x="380" d="M110 11T110 42T135 86T185 86T210 42T185 -2T135 -2ZM346 572V465Q346 427 329 395T289 340T242 292T206 233T196 158H116Q112 211 123 249T154 309T192 351T226 398T240 463V572Q240 607 224
624T180 642Q152 642 136 623T120 572V491H28V570Q28 640 70 674T184 709Q256 709 300 675T346 572Z" />
<glyph unicode="@" glyph-name="at" horiz-adv-x="674" d="M277 131Q277 93 293 74T340 56Q381 56 411 88L410 91Q399 93 395 95T389 107V504Q364 514 339 513T296 489T277 426V131ZM311 -5Q258 -5 222 29T186 130V426Q186 499 240 537T364 569T483 521V69Q483
53 489 47T504 44T521 52T538 65Q588 111 584 225V438Q581 508 544 560T452 636T336 659T221 630T133 540T97 390V177Q97 99 128 36T210 -59T326 -95T460 -60L480 -97Q422 -129 360 -135T242 -121T143 -62T74 40T48 177V390Q48 466 72 526T137 623T230 680T336
701T442 685T535 636T603 553T631 438V225Q633 171 617 119T567 32Q532 -4 478 -6T407 34H403Q389 16 363 6T311 -5Z" />
<glyph unicode="A" glyph-name="A" horiz-adv-x="501" d="M230 583L152 246H309L231 583H230ZM139 189L106 49L142 31V0H5V31L41 50L198 705H301L462 53L498 31V0H320V26L356 48L323 189H139Z" />
<glyph unicode="B" glyph-name="B" horiz-adv-x="499" d="M450 260V142Q450 68 406 34T272 0H43V29L88 59V646L50 672V700H271Q348 700 388 672T429 572V471Q429 441 414 416T373 379Q450 349 450 260ZM168 60H270Q346 60 346 142V260Q346 304 327 325T261 346H189V98Q189
72 168 65V60ZM263 396Q325 396 325 471V572Q325 602 309 622T263 642H189V396H263Z" />
<glyph unicode="C" glyph-name="C" horiz-adv-x="500" d="M452 703V507H348V526Q348 641 257 642Q218 642 193 613T167 522V175Q167 55 260 55Q312 55 333 83T354 168V205H458V167Q458 78 404 34T261 -11Q173 -11 118 36T63 175V522Q63 611 114 659T254 708Q333
708 372 665H375L383 703H452Z" />
<glyph unicode="D" glyph-name="D" horiz-adv-x="524" d="M50 701H260Q461 701 461 520V184Q461 94 406 47T260 0H44V29L88 59V642L50 672V701ZM260 640H193V100Q193 75 171 69L172 63H260Q357 64 357 184V520Q357 639 260 640Z" />
<glyph unicode="E" glyph-name="E" horiz-adv-x="459" d="M419 0H43V29L88 59V649L50 675V701H406V544H356L328 642H192V379H288L314 434H344V265H314L288 318H192V97Q192 73 171 66V61H341L375 157H419V0Z" />
<glyph unicode="F" glyph-name="F" horiz-adv-x="445" d="M417 701V534H369L339 642H189V379H297L323 434H354V265H323L297 318H189V59L233 29V0H43V29L88 59V641L50 672V701H417Z" />
<glyph unicode="G" glyph-name="G" horiz-adv-x="520" d="M168 521V178Q168 58 263 58Q356 58 356 166V242L297 276V306H461V0H396L385 51Q349 -8 265 -8Q173 -8 118 39T63 178V521Q63 612 121 659T258 707Q340 707 378 665H381L389 702H458V507H354V560Q354 601
327 621T259 641T193 612T168 521Z" />
<glyph unicode="H" glyph-name="H" horiz-adv-x="540" d="M88 646L50 672V701H227V672L189 646V386H351V646L313 672V701H490V672L452 646V53L497 29V0H307V29L351 53V329H189V53L234 29V0H43V29L88 53V646Z" />
<glyph unicode="I" glyph-name="I" horiz-adv-x="276" d="M189 646V59L233 29V0H43V29L88 59V646L50 672V701H227V672L189 646Z" />
<glyph unicode="J" glyph-name="J" horiz-adv-x="463" d="M283 178V646L245 672V701H426V672L388 646V178Q388 85 340 39T206 -8Q105 -8 65 41T25 188V266H130V188Q130 164 130 157T132 129T138 100T150 80T171 63T204 58Q226 58 241 65T265 81T277 109T282 141T283 178Z" />
<glyph unicode="K" glyph-name="K" horiz-adv-x="524" d="M483 701V662Q460 663 449 652T426 614Q420 600 403 539T366 435T327 384V382Q394 376 421 251L452 105Q458 77 473 59T511 46V7Q487 -6 444 -6Q400 -6 378 19T346 92L317 231Q306 284 284 313T218 343H188V59L233
29V0H43V29L87 59V646L49 672V701H226V672L188 646V399Q231 399 257 435T292 517T320 613T369 684Q384 694 404 698T443 702T483 701Z" />
<glyph unicode="L" glyph-name="L" horiz-adv-x="429" d="M409 0H43V29L88 59V646L50 672V701H230V672L192 646V97Q192 73 171 66V61H331L365 157H409V0Z" />
<glyph unicode="M" glyph-name="M" horiz-adv-x="679" d="M158 57L200 31V0H45V31L87 57V646L47 672V701H194Q222 701 234 692T253 654Q307 365 335 129H337L426 657Q432 684 444 692T485 700Q514 700 558 700T630 701V672L591 646V59L635 29V0H444V29L488 59V530L491
630H487L377 10H294Q264 10 260 38Q202 386 158 623H153L158 494V57Z" />
<glyph unicode="N" glyph-name="N" horiz-adv-x="523" d="M159 57L201 31V0H45V31L87 57V646L49 672V701H167Q200 701 211 694T230 659L328 347L373 151H375Q375 176 373 235T371 320V644L333 670V701H480V670L442 644V0H356Q323 0 313 34L150 594L147 593L159 493V57Z" />
<glyph unicode="O" glyph-name="O" horiz-adv-x="526" d="M464 525V177Q464 92 410 41T263 -10Q172 -10 118 41T63 177V525Q63 609 117 660T263 712Q355 712 409 661T464 525ZM167 525V177Q167 57 263 57Q311 57 336 91T361 177V525Q361 578 336 611T263 645Q167
645 167 525Z" />
<glyph unicode="P" glyph-name="P" horiz-adv-x="486" d="M254 639H189V313H253Q346 313 346 413V538Q346 588 325 613T254 639ZM450 538V413Q450 255 251 255H189V59L233 29V0H43V29L88 59V646L50 672V701H253Q342 701 396 663T450 538Z" />
<glyph unicode="Q" glyph-name="Q" horiz-adv-x="527" d="M464 525V175Q464 104 425 56T317 -6V-41Q317 -68 329 -81T367 -86L382 -114Q330 -162 279 -138T228 -41V135Q228 164 212 174T180 174T167 138Q174 92 207 70V-5Q139 10 101 57T63 175V525Q63 609 117
660T263 711Q355 711 409 660T464 525ZM167 210Q185 242 221 245T287 219T317 140V71Q360 102 360 175V525Q360 578 336 611T263 645Q167 645 167 525V210Z" />
<glyph unicode="R" glyph-name="R" horiz-adv-x="514" d="M253 639H188V346H252Q345 346 345 447V538Q345 588 324 613T253 639ZM335 92L286 220Q271 261 252 274T189 288V59L233 29V0H43V29L87 59V646L50 672V701H253Q342 701 395 663T449 538V447Q449 385 418
348T336 300Q374 280 390 234L437 105Q462 38 497 46V7Q471 -6 424 -6Q395 -6 378 7T353 43T335 92Z" />
<glyph unicode="S" glyph-name="S" horiz-adv-x="462" d="M159 142Q159 57 230 57Q306 57 306 142V227Q306 263 280 286T217 323T143 352T79 400T53 480V565Q53 639 98 674T211 709Q285 709 325 664H329L337 702H405V514H302V565Q302 602 283 622T228 642Q157
642 157 565V480Q157 447 183 426T247 392T321 363T385 313T412 228V142Q412 64 358 27T225 -11Q148 -11 97 28T46 143V198H159V142Z" />
<glyph unicode="T" glyph-name="T" horiz-adv-x="461" d="M356 638H283V65L327 34V0H134V34L178 65V638H103L71 523H23L27 701H434L438 523H390L356 638Z" />
<glyph unicode="U" glyph-name="U" horiz-adv-x="527" d="M281 61Q333 61 357 89T381 179V644L343 670V701H490V670L452 644V177Q452 82 401 37T266 -10Q183 -10 131 37T78 177V642L34 672V701H227V672L183 642V177Q183 61 281 61Z" />
<glyph unicode="V" glyph-name="V" horiz-adv-x="499" d="M270 118H271L395 652L357 670V701H494V670L459 651L302 -4H200L39 648L2 670V701H184V675L146 648L270 118Z" />
<glyph unicode="W" glyph-name="W" horiz-adv-x="692" d="M232 154H233L334 682H399L495 160H496L580 652L542 670V701H681V670L645 651L530 -4H424L345 398L260 -4H159L50 648L11 670V701H198V669L157 650L232 154Z" />
<glyph unicode="X" glyph-name="X" horiz-adv-x="467" d="M178 661L251 466L342 655L307 673V701H446V671L411 654L281 387L415 46L451 25V0H358Q334 0 323 6T301 40L215 254L115 47L152 29V0H7V29L45 48L186 337L62 657L33 675V701H124Q147 701 156 694T178 661Z" />
<glyph unicode="Y" glyph-name="Y" horiz-adv-x="448" d="M174 64V308L29 661L1 671V700H91Q117 700 127 692T147 659L243 411L339 653L301 672V700H445V672L408 653L279 321V64L323 33V0H130V33L174 64Z" />
<glyph unicode="Z" glyph-name="Z" horiz-adv-x="432" d="M48 539L53 701H387V666L156 61H316L350 162H398L393 0H28V29L267 641H130L96 539H48Z" />
<glyph unicode="[" glyph-name="bracketleft" horiz-adv-x="253" d="M66 774H225V710H152V-16H225V-79H66V774Z" />
<glyph unicode="\" glyph-name="backslash" horiz-adv-x="287" d="M103 706L259 -17H184L28 706H103Z" />
<glyph unicode="]" glyph-name="bracketright" horiz-adv-x="253" d="M187 774V-79H28V-16H101V710H28V774H187Z" />
<glyph unicode="^" glyph-name="asciicircum" horiz-adv-x="396" d="M245 704L366 363H288L199 618L111 363H32L154 704H245Z" />
<glyph unicode="_" glyph-name="underscore" horiz-adv-x="488" d="M92 -71V-10H396V-71H92Z" />
<glyph unicode="`" glyph-name="grave" horiz-adv-x="263" d="M53 704H157L205 605Q202 597 193 594H132L41 695Q42 699 53 704Z" />
<glyph unicode="a" glyph-name="a" horiz-adv-x="457" d="M291 169H129L100 46L133 29V0H7V29L39 47L179 634H276L420 50L452 29V0H289V24L320 45L291 169ZM210 519H209Q181 406 141 223H278L210 519Z" />
<glyph unicode="b" glyph-name="b" horiz-adv-x="470" d="M250 0H252H46V27L85 55V579L52 604V631H249Q319 631 357 606T395 515V424Q395 352 336 341Q414 323 414 234V128Q414 55 370 28T250 0ZM316 128V234Q316 273 299 291T242 310H180V91Q180 67 160 61V56H250Q288
56 302 72T316 128ZM297 424V515Q297 575 245 575H180V357H244Q297 357 297 424Z" />
<glyph unicode="c" glyph-name="c" horiz-adv-x="470" d="M419 633V456H321V473Q321 575 242 575Q209 575 186 550T163 470V158Q163 52 244 52Q290 52 308 76T326 151V185H425V150Q425 70 376 30T245 -10Q165 -10 115 32T65 158V470Q65 550 111 593T239 637Q309
637 344 603H346L354 633H419Z" />
<glyph unicode="d" glyph-name="d" horiz-adv-x="489" d="M424 466V166Q424 85 375 43T244 0H47V27L85 55V575L52 604V631H244Q322 631 373 590T424 466ZM244 573H184V93Q184 70 163 65L164 59H244Q326 59 326 166V468Q326 573 244 573Z" />
<glyph unicode="e" glyph-name="e" horiz-adv-x="429" d="M386 0H46V27L85 55V582L52 607V631H374V490H327L301 575H183V342H265L290 391H318V239H290L265 285H183V90Q183 68 163 62V57H312L344 141H386V0Z" />
<glyph unicode="f" glyph-name="f" horiz-adv-x="419" d="M53 631H386V480H340L312 575H181V342H274L299 391H328V239H299L274 285H181V55L219 27V0H47V27L86 55V575L53 604V631Z" />
<glyph unicode="g" glyph-name="g" horiz-adv-x="488" d="M163 469V160Q163 55 246 55Q327 55 327 149V215L277 247V275H427V0H365L355 44Q322 -7 248 -7Q165 -7 115 35T64 160V469Q64 551 117 593T242 636Q315 636 348 603H351L359 632H424V456H326V506Q326 541
302 557T243 574Q163 574 163 469Z" />
<glyph unicode="h" glyph-name="h" horiz-adv-x="501" d="M85 50V579L53 604V631H212V604L180 579V349H320V579L288 604V631H448V604L416 579V50L454 27V0H283V27L320 50V295H180V50L219 27V0H46V27L85 50Z" />
<glyph unicode="i" glyph-name="i" horiz-adv-x="267" d="M182 579V55L219 27V0H48V27L86 55V579L54 604V631H214V604L182 579Z" />
<glyph unicode="j" glyph-name="j" horiz-adv-x="429" d="M257 160V579L225 604V631H388V604L356 579V160Q356 76 313 35T191 -7Q98 -7 62 37T26 169V239H125V169Q125 158 125 147T126 124T129 103T135 84T146 69T164 59T189 55Q209 55 222 61T242 76T252 100T256
128T257 160Z" />
<glyph unicode="k" glyph-name="k" horiz-adv-x="488" d="M443 631V595Q422 595 412 585T393 550Q390 541 373 485T340 390T308 346V344Q366 339 390 226L418 95Q423 71 437 55T469 43L468 6Q448 -6 408 -6Q367 -7 347 15T318 81L292 207Q282 255 264 281T207
307H180V55L219 27V0H47V27L85 55V579L52 604V631H212V604L180 579V360Q213 360 233 385T264 448T285 524T316 592T372 629Q377 631 408 631T443 631Z" />
<glyph unicode="l" glyph-name="l" horiz-adv-x="397" d="M377 0H46V27L85 55V579L52 604V631H215V604L183 579V90Q183 81 173 71L163 61V57H303L335 141H376L377 0Z" />
<glyph unicode="m" glyph-name="m" horiz-adv-x="628" d="M144 445V54L180 29V0H41V29L77 54V579L43 604V631H174Q208 631 221 624T242 587Q288 331 310 119H312L388 592Q393 617 403 624T442 631H579V604L545 579V55L583 27V0H410V27L448 55V58V61V64V67V70V73V76V79V82V85V88V91V94V97V100V103V106V109V112V115V118V121V124V127V130V133V136V139V142V145V148V151V154V157V160V163V166V169V172V175V178V181V184V187V190V193V196V199V202V205V208V211V214V217V220V223V226V229V232V235V238V241V244V247V250V254V257V260V263V266V269V272V275V278V281V284V287V290V293V296V299V302V305V308V311V314V317V320V323V326V329V332V335V338V341V344V347V350V353V356V359V362V365V368V371V374V377V380V383V386V389V392V395V398V401V404V407V410V413V416V419V422V425V428V431V434V437V440V443V446V449V452V455V458V461V464V466V475V566H445L350
7H271Q243 7 239 33Q188 357 152 559H139L144 445Z" />
<glyph unicode="n" glyph-name="n" horiz-adv-x="487" d="M153 444V54L190 29V0H49V29L85 54V579L53 604V631H170Q192 630 202 623T220 592L306 314L343 143H345Q345 166 344 216T342 287V577L309 602V631H441V602L408 577V0H327Q295 0 287 32L145 530Q144 530
144 530L142 529L153 444Z" />
<glyph unicode="o" glyph-name="o" horiz-adv-x="492" d="M428 473V159Q428 82 379 37T246 -9T114 37T64 159V473Q64 549 113 595T246 641T378 596T428 473ZM162 473V159Q162 54 246 54Q287 54 309 83T331 159V473Q331 519 310 548T246 578Q162 578 162 473Z" />
<glyph unicode="p" glyph-name="p" horiz-adv-x="451" d="M414 484V372Q414 229 233 229H180V55L218 27V0H46V27L85 55V579L52 604V631H235Q315 631 364 597T414 484ZM236 573H180V283H235Q316 283 316 372V484Q316 528 298 550T236 573Z" />
<glyph unicode="q" glyph-name="q" horiz-adv-x="495" d="M430 473V157Q430 94 395 51T297 -5V-37Q297 -90 341 -77L355 -103Q308 -148 261 -126T213 -37V121Q213 145 199 154T173 153T164 123Q169 88 194 67V-4Q134 10 100 52T65 157V473Q65 548 114 594T247
640T380 595T430 473ZM163 189Q179 217 211 219T270 196T297 126V67Q331 97 331 157V473Q331 519 310 548T247 577Q163 577 163 473V189Z" />
<glyph unicode="r" glyph-name="r" horiz-adv-x="486" d="M237 573H181V313H236Q317 313 317 402V484Q317 528 299 550T237 573ZM308 82L264 198Q250 235 235 246T182 258V55L220 27V0H48V27L86 55V579L54 604V631H237Q317 631 366 597T415 484V402Q415 347 388
313T315 270Q348 252 363 211L405 95Q414 70 426 55T457 43V6Q432 -6 390 -6Q363 -6 347 6T325 37T308 82Z" />
<glyph unicode="s" glyph-name="s" horiz-adv-x="434" d="M155 128Q155 54 215 54Q280 54 280 128V204Q280 236 257 256T200 289T134 316T78 360T54 432V509Q54 575 95 606T198 638Q263 638 299 600H303L310 632H374V462H277V509Q277 575 213 575Q153 575 153
509V432Q153 403 176 384T233 353T300 327T357 282T381 205V128Q381 58 332 24T211 -10Q141 -10 95 25T48 129V178H155V128Z" />
<glyph unicode="t" glyph-name="t" horiz-adv-x="435" d="M329 572H267V61L304 32V0H130V32L168 61V572H104L74 471H29L32 631H402L406 471H361L329 572Z" />
<glyph unicode="u" glyph-name="u" horiz-adv-x="489" d="M349 159V577L316 602V631H449V602L416 577V159Q416 75 369 33T247 -9Q172 -9 124 33T76 159V575L38 604V631H213V604L175 575V159Q175 58 261 58Q349 58 349 159Z" />
<glyph unicode="v" glyph-name="v" horiz-adv-x="471" d="M255 111L365 585L330 602V631H459V602L425 584L285 -3H188L45 581L11 602V631H179V604L145 581L255 111Z" />
<glyph unicode="w" glyph-name="w" horiz-adv-x="641" d="M453 147H454Q481 291 530 585Q526 588 513 593T497 602V631H624V602Q620 599 608 593T591 584L488 -3H388L319 345L245 -3H150L53 581L20 602V631H188V603L153 583L218 142H219Q219 143 309 614H370L453 147Z" />
<glyph unicode="x" glyph-name="x" horiz-adv-x="443" d="M174 593L237 424L316 588L283 605V631H412V605L381 587L265 349L384 43L418 23V0H329Q307 0 297 6T276 38L202 223L116 44L150 27V0H17V27L49 45L175 301L65 590L36 607V631H124Q146 631 155 625T174 593Z" />
<glyph unicode="y" glyph-name="y" horiz-adv-x="425" d="M165 277L36 594L12 603V630H95Q119 630 128 623T148 591L231 374L314 587L280 604V630H413V604L379 587L264 289V60L302 31V0H128V31L165 60V277Z" />
<glyph unicode="z" glyph-name="z" horiz-adv-x="407" d="M55 631H358V598L154 57H291L323 146H368L364 0H33V27L244 574H128L96 485H51L55 631Z" />
<glyph unicode="{" glyph-name="braceleft" horiz-adv-x="242" d="M78 410Q78 438 73 503Q63 647 78 700Q104 793 212 767L210 714Q181 718 166 695T149 630T150 548T158 463T164 405Q164 361 125 343V339Q164 322 164 277Q164 263 159 220T151 137T149 56T166
-9T210 -31L212 -84Q172 -92 145 -88T103 -64T79 -19T70 41T69 109T73 181Q78 246 78 274Q78 313 33 311V370Q78 366 78 410Z" />
<glyph unicode="|" glyph-name="bar" horiz-adv-x="193" d="M66 711H127V-68H66V711Z" />
<glyph unicode="}" glyph-name="braceright" horiz-adv-x="242" d="M164 410Q164 366 209 370V311Q164 313 164 274Q164 246 169 181Q171 152 171 138T173 96T174 54T171 16T164 -19T151 -47T133 -70T107 -84T74 -91T30 -84L32 -31Q61 -33 76 -9T92 56T91 137T83
220T78 277Q78 322 117 339V343Q78 361 78 405Q78 419 83 463T92 547T94 629T77 694T32 714L30 767Q70 775 97 771T139 747T163 702T172 643T173 574T169 503Q164 438 164 410Z" />
<glyph unicode="~" glyph-name="asciitilde" horiz-adv-x="396" d="M265 352Q286 345 295 352T312 381L362 363Q357 349 355 341T348 321T339 303T328 289T314 278T296 271T274 267T246 271Q218 276 180 293T127 315Q114 321 105 316T92 304T84 285L34 303Q52
359 79 383T164 392Q187 386 221 371T265 352Z" />
</font>
</defs>
</svg>
